<mxfile host="app.diagrams.net" modified="2024-07-06T15:29:04.585Z" agent="Mozilla/5.0 (Macintosh; Intel Mac OS X 10_15_7) AppleWebKit/605.1.15 (KHTML, like Gecko) Version/17.5 Safari/605.1.15" etag="fxRRQ5EIrACDDVuBLvml" version="24.6.4" type="device">
  <diagram name="Seite-1" id="2ApA6KA9VkkbbFQsiupI">
    <mxGraphModel dx="1035" dy="630" grid="1" gridSize="10" guides="1" tooltips="1" connect="1" arrows="1" fold="1" page="1" pageScale="1" pageWidth="1600" pageHeight="900" math="0" shadow="0">
      <root>
        <mxCell id="0" />
        <mxCell id="1" parent="0" />
        <mxCell id="Yj4GlLGx4b2EiIHdAOj5-7" style="edgeStyle=orthogonalEdgeStyle;rounded=0;orthogonalLoop=1;jettySize=auto;html=1;entryX=0;entryY=0.5;entryDx=0;entryDy=0;dashed=1;endArrow=none;endFill=0;" edge="1" parent="1" source="Yj4GlLGx4b2EiIHdAOj5-1" target="Yj4GlLGx4b2EiIHdAOj5-4">
          <mxGeometry relative="1" as="geometry" />
        </mxCell>
        <mxCell id="Yj4GlLGx4b2EiIHdAOj5-8" value="Takes" style="edgeLabel;html=1;align=center;verticalAlign=middle;resizable=0;points=[];" vertex="1" connectable="0" parent="Yj4GlLGx4b2EiIHdAOj5-7">
          <mxGeometry x="-0.2" relative="1" as="geometry">
            <mxPoint x="12" as="offset" />
          </mxGeometry>
        </mxCell>
        <mxCell id="Yj4GlLGx4b2EiIHdAOj5-34" style="edgeStyle=orthogonalEdgeStyle;rounded=0;orthogonalLoop=1;jettySize=auto;html=1;exitX=1;exitY=0;exitDx=0;exitDy=0;entryX=0;entryY=0;entryDx=0;entryDy=0;curved=1;" edge="1" parent="1" source="Yj4GlLGx4b2EiIHdAOj5-1" target="Yj4GlLGx4b2EiIHdAOj5-4">
          <mxGeometry relative="1" as="geometry" />
        </mxCell>
        <mxCell id="Yj4GlLGx4b2EiIHdAOj5-35" value="Has changed?" style="edgeLabel;html=1;align=center;verticalAlign=middle;resizable=0;points=[];" vertex="1" connectable="0" parent="Yj4GlLGx4b2EiIHdAOj5-34">
          <mxGeometry x="0.0434" relative="1" as="geometry">
            <mxPoint as="offset" />
          </mxGeometry>
        </mxCell>
        <mxCell id="Yj4GlLGx4b2EiIHdAOj5-1" value="EnzymeMLState" style="whiteSpace=wrap;html=1;fillColor=#dae8fc;strokeColor=#6c8ebf;" vertex="1" parent="1">
          <mxGeometry x="430" y="390" width="120" height="60" as="geometry" />
        </mxCell>
        <mxCell id="Yj4GlLGx4b2EiIHdAOj5-3" style="edgeStyle=orthogonalEdgeStyle;rounded=0;orthogonalLoop=1;jettySize=auto;html=1;" edge="1" parent="1" source="Yj4GlLGx4b2EiIHdAOj5-2" target="Yj4GlLGx4b2EiIHdAOj5-1">
          <mxGeometry relative="1" as="geometry" />
        </mxCell>
        <mxCell id="Yj4GlLGx4b2EiIHdAOj5-2" value="Init" style="ellipse;whiteSpace=wrap;html=1;aspect=fixed;fillColor=#d5e8d4;strokeColor=#82b366;" vertex="1" parent="1">
          <mxGeometry x="260" y="380" width="80" height="80" as="geometry" />
        </mxCell>
        <mxCell id="Yj4GlLGx4b2EiIHdAOj5-11" style="edgeStyle=orthogonalEdgeStyle;rounded=0;orthogonalLoop=1;jettySize=auto;html=1;exitX=0.5;exitY=1;exitDx=0;exitDy=0;" edge="1" parent="1" source="Yj4GlLGx4b2EiIHdAOj5-4" target="Yj4GlLGx4b2EiIHdAOj5-9">
          <mxGeometry relative="1" as="geometry" />
        </mxCell>
        <mxCell id="Yj4GlLGx4b2EiIHdAOj5-32" value="No ID" style="edgeLabel;html=1;align=center;verticalAlign=middle;resizable=0;points=[];" vertex="1" connectable="0" parent="Yj4GlLGx4b2EiIHdAOj5-11">
          <mxGeometry x="0.0239" relative="1" as="geometry">
            <mxPoint as="offset" />
          </mxGeometry>
        </mxCell>
        <mxCell id="Yj4GlLGx4b2EiIHdAOj5-12" style="edgeStyle=orthogonalEdgeStyle;rounded=0;orthogonalLoop=1;jettySize=auto;html=1;exitX=0.5;exitY=1;exitDx=0;exitDy=0;" edge="1" parent="1" source="Yj4GlLGx4b2EiIHdAOj5-4" target="Yj4GlLGx4b2EiIHdAOj5-10">
          <mxGeometry relative="1" as="geometry" />
        </mxCell>
        <mxCell id="Yj4GlLGx4b2EiIHdAOj5-14" value="Has ID" style="edgeLabel;html=1;align=center;verticalAlign=middle;resizable=0;points=[];" vertex="1" connectable="0" parent="Yj4GlLGx4b2EiIHdAOj5-12">
          <mxGeometry x="-0.1286" y="1" relative="1" as="geometry">
            <mxPoint as="offset" />
          </mxGeometry>
        </mxCell>
        <mxCell id="Yj4GlLGx4b2EiIHdAOj5-4" value="Save" style="ellipse;whiteSpace=wrap;html=1;fillColor=#d5e8d4;strokeColor=#82b366;" vertex="1" parent="1">
          <mxGeometry x="670" y="380" width="80" height="80" as="geometry" />
        </mxCell>
        <mxCell id="Yj4GlLGx4b2EiIHdAOj5-15" style="edgeStyle=orthogonalEdgeStyle;rounded=0;orthogonalLoop=1;jettySize=auto;html=1;entryX=0.5;entryY=1;entryDx=0;entryDy=0;" edge="1" parent="1" source="Yj4GlLGx4b2EiIHdAOj5-9" target="Yj4GlLGx4b2EiIHdAOj5-1">
          <mxGeometry relative="1" as="geometry">
            <mxPoint x="480" y="450" as="targetPoint" />
            <Array as="points">
              <mxPoint x="490" y="560" />
            </Array>
          </mxGeometry>
        </mxCell>
        <mxCell id="Yj4GlLGx4b2EiIHdAOj5-16" value="Set ID" style="edgeLabel;html=1;align=center;verticalAlign=middle;resizable=0;points=[];" vertex="1" connectable="0" parent="Yj4GlLGx4b2EiIHdAOj5-15">
          <mxGeometry x="0.5176" y="-2" relative="1" as="geometry">
            <mxPoint as="offset" />
          </mxGeometry>
        </mxCell>
        <mxCell id="Yj4GlLGx4b2EiIHdAOj5-9" value="Insert document" style="shape=parallelogram;perimeter=parallelogramPerimeter;whiteSpace=wrap;html=1;fixedSize=1;fillColor=#e1d5e7;strokeColor=#9673a6;" vertex="1" parent="1">
          <mxGeometry x="570" y="530" width="120" height="60" as="geometry" />
        </mxCell>
        <mxCell id="Yj4GlLGx4b2EiIHdAOj5-10" value="Update document" style="shape=parallelogram;perimeter=parallelogramPerimeter;whiteSpace=wrap;html=1;fixedSize=1;fillColor=#e1d5e7;strokeColor=#9673a6;" vertex="1" parent="1">
          <mxGeometry x="700" y="530" width="160" height="60" as="geometry" />
        </mxCell>
        <mxCell id="Yj4GlLGx4b2EiIHdAOj5-23" style="edgeStyle=orthogonalEdgeStyle;rounded=0;orthogonalLoop=1;jettySize=auto;html=1;entryX=0.5;entryY=0;entryDx=0;entryDy=0;endArrow=none;endFill=0;startArrow=none;startFill=0;dashed=1;" edge="1" parent="1" source="Yj4GlLGx4b2EiIHdAOj5-17" target="Yj4GlLGx4b2EiIHdAOj5-1">
          <mxGeometry relative="1" as="geometry" />
        </mxCell>
        <mxCell id="Yj4GlLGx4b2EiIHdAOj5-24" value="Takes" style="edgeLabel;html=1;align=center;verticalAlign=middle;resizable=0;points=[];" vertex="1" connectable="0" parent="Yj4GlLGx4b2EiIHdAOj5-23">
          <mxGeometry x="-0.25" relative="1" as="geometry">
            <mxPoint y="10" as="offset" />
          </mxGeometry>
        </mxCell>
        <mxCell id="Yj4GlLGx4b2EiIHdAOj5-25" style="edgeStyle=orthogonalEdgeStyle;rounded=0;orthogonalLoop=1;jettySize=auto;html=1;entryX=0.5;entryY=0;entryDx=0;entryDy=0;" edge="1" parent="1" source="Yj4GlLGx4b2EiIHdAOj5-17" target="Yj4GlLGx4b2EiIHdAOj5-4">
          <mxGeometry relative="1" as="geometry" />
        </mxCell>
        <mxCell id="Yj4GlLGx4b2EiIHdAOj5-26" value="Invokes on&amp;nbsp;&lt;div&gt;current state&lt;/div&gt;" style="edgeLabel;html=1;align=center;verticalAlign=middle;resizable=0;points=[];" vertex="1" connectable="0" parent="Yj4GlLGx4b2EiIHdAOj5-25">
          <mxGeometry x="-0.3517" y="-2" relative="1" as="geometry">
            <mxPoint y="-2" as="offset" />
          </mxGeometry>
        </mxCell>
        <mxCell id="Yj4GlLGx4b2EiIHdAOj5-27" value="State has ID" style="edgeLabel;html=1;align=center;verticalAlign=middle;resizable=0;points=[];" vertex="1" connectable="0" parent="Yj4GlLGx4b2EiIHdAOj5-25">
          <mxGeometry x="0.531" y="-1" relative="1" as="geometry">
            <mxPoint y="18" as="offset" />
          </mxGeometry>
        </mxCell>
        <mxCell id="Yj4GlLGx4b2EiIHdAOj5-29" style="edgeStyle=orthogonalEdgeStyle;rounded=0;orthogonalLoop=1;jettySize=auto;html=1;exitX=1;exitY=0.5;exitDx=0;exitDy=0;entryX=0;entryY=0.5;entryDx=0;entryDy=0;" edge="1" parent="1" source="Yj4GlLGx4b2EiIHdAOj5-17" target="Yj4GlLGx4b2EiIHdAOj5-28">
          <mxGeometry relative="1" as="geometry" />
        </mxCell>
        <mxCell id="Yj4GlLGx4b2EiIHdAOj5-30" value="State has&lt;div&gt;no ID&lt;/div&gt;" style="edgeLabel;html=1;align=center;verticalAlign=middle;resizable=0;points=[];" vertex="1" connectable="0" parent="Yj4GlLGx4b2EiIHdAOj5-29">
          <mxGeometry x="0.5692" y="-1" relative="1" as="geometry">
            <mxPoint as="offset" />
          </mxGeometry>
        </mxCell>
        <mxCell id="Yj4GlLGx4b2EiIHdAOj5-37" style="edgeStyle=orthogonalEdgeStyle;rounded=0;orthogonalLoop=1;jettySize=auto;html=1;entryX=1;entryY=0.5;entryDx=0;entryDy=0;" edge="1" parent="1" source="Yj4GlLGx4b2EiIHdAOj5-17" target="Yj4GlLGx4b2EiIHdAOj5-36">
          <mxGeometry relative="1" as="geometry" />
        </mxCell>
        <mxCell id="Yj4GlLGx4b2EiIHdAOj5-17" value="Load" style="ellipse;whiteSpace=wrap;html=1;fillColor=#d5e8d4;strokeColor=#82b366;" vertex="1" parent="1">
          <mxGeometry x="450" y="230" width="80" height="80" as="geometry" />
        </mxCell>
        <mxCell id="Yj4GlLGx4b2EiIHdAOj5-28" value="Delete" style="rhombus;whiteSpace=wrap;html=1;fillColor=#f5f5f5;fontColor=#333333;strokeColor=#666666;" vertex="1" parent="1">
          <mxGeometry x="830" y="230" width="80" height="80" as="geometry" />
        </mxCell>
        <mxCell id="Yj4GlLGx4b2EiIHdAOj5-38" style="edgeStyle=orthogonalEdgeStyle;rounded=0;orthogonalLoop=1;jettySize=auto;html=1;entryX=0.25;entryY=0;entryDx=0;entryDy=0;" edge="1" parent="1" source="Yj4GlLGx4b2EiIHdAOj5-36" target="Yj4GlLGx4b2EiIHdAOj5-1">
          <mxGeometry relative="1" as="geometry">
            <Array as="points">
              <mxPoint x="320" y="330" />
              <mxPoint x="460" y="330" />
            </Array>
          </mxGeometry>
        </mxCell>
        <mxCell id="Yj4GlLGx4b2EiIHdAOj5-39" value="Updates" style="edgeLabel;html=1;align=center;verticalAlign=middle;resizable=0;points=[];" vertex="1" connectable="0" parent="Yj4GlLGx4b2EiIHdAOj5-38">
          <mxGeometry x="-0.2573" y="1" relative="1" as="geometry">
            <mxPoint x="14" as="offset" />
          </mxGeometry>
        </mxCell>
        <mxCell id="Yj4GlLGx4b2EiIHdAOj5-36" value="Retrieve doc&lt;div&gt;&amp;nbsp;by ID&lt;/div&gt;" style="shape=parallelogram;perimeter=parallelogramPerimeter;whiteSpace=wrap;html=1;fixedSize=1;fillColor=#e1d5e7;strokeColor=#9673a6;" vertex="1" parent="1">
          <mxGeometry x="260" y="240" width="120" height="60" as="geometry" />
        </mxCell>
        <mxCell id="Yj4GlLGx4b2EiIHdAOj5-40" value="REST API" style="shape=cube;whiteSpace=wrap;html=1;boundedLbl=1;backgroundOutline=1;darkOpacity=0.05;darkOpacity2=0.1;fillColor=#ffe6cc;strokeColor=#d79b00;" vertex="1" parent="1">
          <mxGeometry x="250" y="560" width="120" height="80" as="geometry" />
        </mxCell>
        <mxCell id="Yj4GlLGx4b2EiIHdAOj5-42" style="edgeStyle=orthogonalEdgeStyle;rounded=0;orthogonalLoop=1;jettySize=auto;html=1;exitX=0;exitY=1;exitDx=0;exitDy=0;" edge="1" parent="1" source="Yj4GlLGx4b2EiIHdAOj5-1">
          <mxGeometry relative="1" as="geometry">
            <mxPoint x="429.97" y="435.0000000000001" as="sourcePoint" />
            <mxPoint x="299.97" y="560" as="targetPoint" />
            <Array as="points">
              <mxPoint x="430" y="490" />
              <mxPoint x="300" y="490" />
            </Array>
          </mxGeometry>
        </mxCell>
        <mxCell id="Yj4GlLGx4b2EiIHdAOj5-47" value="Retrieve" style="edgeLabel;html=1;align=center;verticalAlign=middle;resizable=0;points=[];" vertex="1" connectable="0" parent="Yj4GlLGx4b2EiIHdAOj5-42">
          <mxGeometry x="0.5299" y="-1" relative="1" as="geometry">
            <mxPoint x="1" y="20" as="offset" />
          </mxGeometry>
        </mxCell>
        <mxCell id="Yj4GlLGx4b2EiIHdAOj5-43" style="edgeStyle=orthogonalEdgeStyle;rounded=0;orthogonalLoop=1;jettySize=auto;html=1;exitX=0.25;exitY=1;exitDx=0;exitDy=0;entryX=0;entryY=0;entryDx=120;entryDy=50;entryPerimeter=0;startArrow=classic;startFill=1;endArrow=none;endFill=0;" edge="1" parent="1" source="Yj4GlLGx4b2EiIHdAOj5-1" target="Yj4GlLGx4b2EiIHdAOj5-40">
          <mxGeometry relative="1" as="geometry">
            <Array as="points">
              <mxPoint x="460" y="610" />
            </Array>
          </mxGeometry>
        </mxCell>
        <mxCell id="Yj4GlLGx4b2EiIHdAOj5-46" value="Update" style="edgeLabel;html=1;align=center;verticalAlign=middle;resizable=0;points=[];" vertex="1" connectable="0" parent="Yj4GlLGx4b2EiIHdAOj5-43">
          <mxGeometry x="0.3184" y="1" relative="1" as="geometry">
            <mxPoint x="5" y="-91" as="offset" />
          </mxGeometry>
        </mxCell>
        <mxCell id="Yj4GlLGx4b2EiIHdAOj5-49" value="" style="verticalLabelPosition=bottom;verticalAlign=top;html=1;shape=mxgraph.basic.flash;fillColor=#FF5208;strokeColor=#2D7600;fillStyle=auto;fontColor=#ffffff;" vertex="1" parent="1">
          <mxGeometry x="410" y="580" width="30" height="50" as="geometry" />
        </mxCell>
        <mxCell id="Yj4GlLGx4b2EiIHdAOj5-51" value="Triggers Tauri Event" style="text;html=1;align=center;verticalAlign=middle;whiteSpace=wrap;rounded=0;" vertex="1" parent="1">
          <mxGeometry x="420" y="620" width="120" height="30" as="geometry" />
        </mxCell>
      </root>
    </mxGraphModel>
  </diagram>
</mxfile>
